<?xml version="1.0" standalone="no"?><svg xmlns="http://www.w3.org/2000/svg" viewBox="0 0 1440 320"><path fill="#f3f4f5" fill-opacity="1" d="M0,160L13.3,144C26.7,128,53,96,80,90.7C106.7,85,133,107,160,96C186.7,85,213,43,240,48C266.7,53,293,107,320,117.3C346.7,128,373,96,400,101.3C426.7,107,453,149,480,138.7C506.7,128,533,64,560,69.3C586.7,75,613,149,640,154.7C666.7,160,693,96,720,64C746.7,32,773,32,800,64C826.7,96,853,160,880,165.3C906.7,171,933,117,960,90.7C986.7,64,1013,64,1040,90.7C1066.7,117,1093,171,1120,208C1146.7,245,1173,267,1200,277.3C1226.7,288,1253,288,1280,272C1306.7,256,1333,224,1360,181.3C1386.7,139,1413,85,1427,58.7L1440,32L1440,0L1426.7,0C1413.3,0,1387,0,1360,0C1333.3,0,1307,0,1280,0C1253.3,0,1227,0,1200,0C1173.3,0,1147,0,1120,0C1093.3,0,1067,0,1040,0C1013.3,0,987,0,960,0C933.3,0,907,0,880,0C853.3,0,827,0,800,0C773.3,0,747,0,720,0C693.3,0,667,0,640,0C613.3,0,587,0,560,0C533.3,0,507,0,480,0C453.3,0,427,0,400,0C373.3,0,347,0,320,0C293.3,0,267,0,240,0C213.3,0,187,0,160,0C133.3,0,107,0,80,0C53.3,0,27,0,13,0L0,0Z"></path></svg>