<?xml version="1.0" standalone="no"?><svg xmlns="http://www.w3.org/2000/svg" viewBox="0 0 1440 320"><path fill="#0099ff" fill-opacity="0.8" d="M0,64L21.8,80C43.6,96,87,128,131,122.7C174.5,117,218,75,262,85.3C305.5,96,349,160,393,186.7C436.4,213,480,203,524,181.3C567.3,160,611,128,655,133.3C698.2,139,742,181,785,181.3C829.1,181,873,139,916,117.3C960,96,1004,96,1047,106.7C1090.9,117,1135,139,1178,138.7C1221.8,139,1265,117,1309,96C1352.7,75,1396,53,1418,42.7L1440,32L1440,0L1418.2,0C1396.4,0,1353,0,1309,0C1265.5,0,1222,0,1178,0C1134.5,0,1091,0,1047,0C1003.6,0,960,0,916,0C872.7,0,829,0,785,0C741.8,0,698,0,655,0C610.9,0,567,0,524,0C480,0,436,0,393,0C349.1,0,305,0,262,0C218.2,0,175,0,131,0C87.3,0,44,0,22,0L0,0Z"></path></svg>