<?xml version="1.0" standalone="no"?>
<svg xmlns:xlink="http://www.w3.org/1999/xlink" id="wave" style="transform:rotate(180deg); transition: 0.3s" viewBox="0 0 1440 320" version="1.1" xmlns="http://www.w3.org/2000/svg"><defs><linearGradient id="sw-gradient-0" x1="0" x2="0" y1="1" y2="0"><stop stop-color="rgba(25.365, 21.727, 20.559, 1)" offset="0%"/><stop stop-color="rgba(148.311, 148.165, 147.84, 1)" offset="100%"/></linearGradient></defs><path style="transform:translate(0, 0px); opacity:1" fill="url(#sw-gradient-0)" d="M0,32L30,53.3C60,75,120,117,180,154.7C240,192,300,224,360,224C420,224,480,192,540,186.7C600,181,660,203,720,208C780,213,840,203,900,213.3C960,224,1020,256,1080,224C1140,192,1200,96,1260,64C1320,32,1380,64,1440,106.7C1500,149,1560,203,1620,192C1680,181,1740,107,1800,101.3C1860,96,1920,160,1980,170.7C2040,181,2100,139,2160,144C2220,149,2280,203,2340,218.7C2400,235,2460,213,2520,181.3C2580,149,2640,107,2700,101.3C2760,96,2820,128,2880,144C2940,160,3000,160,3060,133.3C3120,107,3180,53,3240,48C3300,43,3360,85,3420,90.7C3480,96,3540,64,3600,74.7C3660,85,3720,139,3780,138.7C3840,139,3900,85,3960,96C4020,107,4080,181,4140,186.7C4200,192,4260,128,4290,96L4320,64L4320,320L4290,320C4260,320,4200,320,4140,320C4080,320,4020,320,3960,320C3900,320,3840,320,3780,320C3720,320,3660,320,3600,320C3540,320,3480,320,3420,320C3360,320,3300,320,3240,320C3180,320,3120,320,3060,320C3000,320,2940,320,2880,320C2820,320,2760,320,2700,320C2640,320,2580,320,2520,320C2460,320,2400,320,2340,320C2280,320,2220,320,2160,320C2100,320,2040,320,1980,320C1920,320,1860,320,1800,320C1740,320,1680,320,1620,320C1560,320,1500,320,1440,320C1380,320,1320,320,1260,320C1200,320,1140,320,1080,320C1020,320,960,320,900,320C840,320,780,320,720,320C660,320,600,320,540,320C480,320,420,320,360,320C300,320,240,320,180,320C120,320,60,320,30,320L0,320Z"/></svg>